<svg width="23" height="27" viewBox="0 0 23 27" fill="none" xmlns="http://www.w3.org/2000/svg">
<path d="M22.0535 13.2629C22.0535 11.8037 20.8668 10.6171 19.4076 10.6171H18.0847V6.6483C18.0847 3.00101 15.1174 0.0336914 11.4701 0.0336914C7.8228 0.0336914 4.85549 3.00101 4.85549 6.6483V10.6171H3.53256C2.07338 10.6171 0.886719 11.8037 0.886719 13.2629V23.8463C0.886719 25.3055 2.07338 26.4921 3.53256 26.4921H19.4076C20.8668 26.4921 22.0535 25.3055 22.0535 23.8463V13.2629ZM7.50133 6.6483C7.50133 4.46019 9.28198 2.67954 11.4701 2.67954C13.6582 2.67954 15.4389 4.46019 15.4389 6.6483V10.6171H7.50133V6.6483Z" fill="#333333"/>
</svg>
